<svg id="Capa_1" enable-background="new 0 0 512 512" height="512" viewBox="0 0 512 512" width="512" xmlns="http://www.w3.org/2000/svg"><g><g><path d="m418.266 231.97c-6.14-9.288-9.406-20.179-9.4-31.314v-.18c0-6.545-.424-12.99-1.246-19.311-.815-6.27-8.242-9.115-13.059-5.019-4.498 3.825-9.229 7.386-14.166 10.659-3.578 2.372-8.35-.428-7.983-4.705 8.818-102.595-67.827-181.795-134.413-182.1-27.122-.124 35.044 65.586-35.772 132.793-6.23 5.912-11.689 11.545-16.478 16.905-2.209 2.472-6.119 2.211-8.046-.487-8.346-11.679-15.043-24.616-19.744-38.475-2.019-5.952-9.857-7.345-13.764-2.422-20.11 25.336-32.106 57.39-32.086 92.25v.091c.005 5.701-2.191 11.152-6.02 15.377-21.478 23.692-34.663 55.602-34.663 90.658 0 32.005 13.204 68.275 37.18 102.129 25.805 36.437 62.282 67.435 105.487 89.642 5.437 2.795 11.045 5.481 16.678 7.991 7.556 3.367 15.691 5.364 23.962 5.533 8.868.182 17.475-1.541 25.547-5.11 5.957-2.631 11.891-5.463 17.637-8.417 43.2-22.207 79.674-53.204 105.477-89.642 23.975-33.854 37.178-70.123 37.178-102.128-.001-27.709-8.244-53.447-22.306-74.718z" fill="#fb3a82"/><path d="m440.575 306.684c0 32.008-13.207 68.28-37.179 102.132-25.806 36.437-62.274 67.435-105.48 89.646-5.748 2.946-11.682 5.779-17.637 8.417-7.84 3.461-16.174 5.192-24.776 5.12-8.344-.072-16.596-1.968-24.23-5.316 5.81-2.586 11.589-5.347 17.194-8.221 43.206-22.211 79.674-53.209 105.48-89.646 23.972-33.852 37.179-70.124 37.179-102.132 0-27.701-8.252-53.446-22.314-74.708-6.14-9.292-9.406-20.181-9.395-31.317v-.185c0-6.531-.422-12.97-1.247-19.285-.814-6.284-8.231-9.138-13.063-5.038-2.683 2.284-5.45 4.473-8.296 6.563-5.739 4.215-13.754-.185-13.395-7.296 3.945-78.086-41.408-141.618-92.628-165.373-.616-6.449.816-10.076 7.213-10.045 66.583.309 143.23 79.506 134.409 182.103-.368 4.283 4.41 7.073 7.993 4.698 4.936-3.271 9.663-6.829 14.154-10.652 4.831-4.1 12.249-1.247 13.063 5.038.824 6.315 1.247 12.754 1.247 19.285v.185c-.01 11.136 3.255 22.025 9.395 31.317 14.061 21.264 22.313 47.008 22.313 74.71z" fill="#fb1466"/><g><path d="m313.415 225.695c-20.964 0-39.936 9.074-53.667 23.739-2.028 2.166-5.462 2.166-7.491 0-13.731-14.665-32.703-23.739-53.667-23.739-41.912 0-75.894 36.26-75.894 80.994 0 39.094 35.721 105.508 114.833 146.171 4.811 2.472 9.782 4.85 14.915 7.118 2.262 1 4.854 1 7.117 0 5.133-2.268 10.105-4.646 14.915-7.118 79.103-40.663 114.824-107.077 114.824-146.171.001-44.734-33.973-80.994-75.885-80.994z" fill="#fca5cd"/><path d="m389.302 306.684c0 39.094-35.722 105.508-114.824 146.171-4.813 2.472-9.787 4.85-14.921 7.118-2.263 1-4.855.999-7.117-.002-5.128-2.268-10.1-4.645-14.913-7.116-1.479-.762-2.941-1.524-4.385-2.313 76.035-40.824 110.431-105.499 110.431-143.857 0-36.233-22.282-66.898-53.027-77.246 7.218-2.439 14.893-3.748 22.864-3.748 41.918 0 75.892 36.26 75.892 80.993z" fill="#fc7cb6"/></g><g><g><g><path d="m209.228 353.462c-4.267 0-7.726-3.459-7.726-7.726v-9.399c0-4.268 3.459-7.726 7.726-7.726s7.726 3.459 7.726 7.726v9.399c0 4.267-3.459 7.726-7.726 7.726z" fill="#fc5a95"/></g><g><path d="m302.769 353.462c-4.268 0-7.726-3.459-7.726-7.726v-9.399c0-4.268 3.459-7.726 7.726-7.726s7.726 3.459 7.726 7.726v9.399c0 4.267-3.459 7.726-7.726 7.726z" fill="#fc5a95"/></g></g><g><path d="m255.998 385.891c-12.727 0-23.693-9.066-26.073-21.558-.799-4.192 1.952-8.237 6.143-9.036 4.191-.804 8.237 1.951 9.036 6.143.994 5.214 5.575 8.999 10.894 8.999 5.318 0 9.9-3.785 10.894-8.999.798-4.191 4.845-6.947 9.036-6.143 4.191.799 6.942 4.844 6.143 9.036-2.38 12.492-13.346 21.558-26.073 21.558z" fill="#fc5a95"/></g></g></g><g><path d="m402.501 103.985c0 16.99 13.773 30.763 30.763 30.763 2.845 0 5.151-2.306 5.151-5.151v-18.686c0-16.99-13.773-30.763-30.763-30.763-2.845 0-5.151 2.306-5.151 5.151z" fill="#fc78a8"/></g><g><path d="m115.48 83.922c0 16.99-13.773 30.763-30.763 30.763-2.845 0-5.151-2.306-5.151-5.151v-18.686c0-16.99 13.773-30.763 30.763-30.763 2.845 0 5.151 2.306 5.151 5.151z" fill="#fb1466"/></g><g><path d="m164.899 25.047c0 16.99 13.773 30.763 30.763 30.763 2.845 0 5.151-2.306 5.151-5.151v-18.686c0-16.99-13.773-30.763-30.763-30.763-2.845 0-5.151 2.306-5.151 5.151z" fill="#fc78a8"/></g></g></svg>